<?xml version="1.0" encoding="UTF-8"?>
<svg xmlns="http://www.w3.org/2000/svg" xmlns:xlink="http://www.w3.org/1999/xlink" width="98px" height="98px" viewBox="0 0 98 98" version="1.1">
<g id="surface1">
<path style=" stroke:none;fill-rule:nonzero;fill:rgb(100%,100%,100%);fill-opacity:1;" d="M 28.707031 0.34375 C 23.492188 0.589844 19.933594 1.421875 16.820312 2.644531 C 13.597656 3.898438 10.867188 5.585938 8.152344 8.308594 C 5.433594 11.035156 3.761719 13.769531 2.515625 16.996094 C 1.308594 20.113281 0.492188 23.679688 0.261719 28.894531 C 0.03125 34.109375 -0.0195312 35.789062 0.0078125 49.09375 C 0.03125 62.402344 0.0898438 64.070312 0.34375 69.296875 C 0.59375 74.507812 1.421875 78.066406 2.644531 81.179688 C 3.902344 84.402344 5.585938 87.132812 8.3125 89.847656 C 11.039062 92.566406 13.769531 94.234375 17.003906 95.484375 C 20.121094 96.6875 23.683594 97.511719 28.898438 97.738281 C 34.113281 97.964844 35.792969 98.019531 49.097656 97.992188 C 62.398438 97.96875 64.074219 97.910156 69.300781 97.660156 C 74.527344 97.414062 78.066406 96.578125 81.179688 95.363281 C 84.402344 94.101562 87.132812 92.421875 89.847656 89.695312 C 92.566406 86.964844 94.238281 84.230469 95.480469 81.003906 C 96.691406 77.886719 97.511719 74.320312 97.738281 69.109375 C 97.964844 63.878906 98.019531 62.210938 97.992188 48.90625 C 97.96875 35.601562 97.90625 33.933594 97.660156 28.707031 C 97.410156 23.484375 96.582031 19.933594 95.359375 16.820312 C 94.101562 13.597656 92.417969 10.871094 89.695312 8.152344 C 86.96875 5.429688 84.230469 3.761719 81.003906 2.519531 C 77.886719 1.3125 74.324219 0.488281 69.109375 0.261719 C 63.890625 0.0390625 62.214844 -0.0195312 48.90625 0.0078125 C 35.597656 0.03125 33.933594 0.0898438 28.707031 0.34375 M 29.277344 88.921875 C 24.5 88.714844 21.90625 87.921875 20.179688 87.257812 C 17.890625 86.375 16.257812 85.308594 14.535156 83.601562 C 12.8125 81.898438 11.753906 80.261719 10.859375 77.976562 C 10.1875 76.246094 9.378906 73.65625 9.15625 68.878906 C 8.914062 63.714844 8.863281 62.164062 8.835938 49.082031 C 8.804688 36 8.855469 34.453125 9.082031 29.285156 C 9.285156 24.511719 10.085938 21.914062 10.75 20.1875 C 11.628906 17.894531 12.691406 16.269531 14.402344 14.546875 C 16.113281 12.824219 17.746094 11.765625 20.03125 10.871094 C 21.757812 10.195312 24.347656 9.394531 29.125 9.167969 C 34.292969 8.921875 35.839844 8.871094 48.921875 8.84375 C 62 8.816406 63.554688 8.863281 68.722656 9.09375 C 73.496094 9.300781 76.09375 10.089844 77.820312 10.757812 C 80.109375 11.640625 81.738281 12.699219 83.460938 14.414062 C 85.183594 16.125 86.246094 17.75 87.136719 20.042969 C 87.8125 21.765625 88.617188 24.355469 88.839844 29.132812 C 89.085938 34.300781 89.144531 35.851562 89.167969 48.929688 C 89.191406 62.007812 89.144531 63.5625 88.917969 68.726562 C 88.707031 73.503906 87.917969 76.097656 87.25 77.828125 C 86.371094 80.117188 85.304688 81.75 83.59375 83.46875 C 81.882812 85.191406 80.253906 86.25 77.96875 87.144531 C 76.242188 87.816406 73.648438 88.621094 68.875 88.847656 C 63.707031 89.09375 62.160156 89.144531 49.074219 89.171875 C 35.992188 89.199219 34.445312 89.148438 29.28125 88.921875 M 69.222656 22.8125 C 69.230469 26.058594 71.867188 28.6875 75.113281 28.679688 C 78.363281 28.675781 80.992188 26.039062 80.984375 22.789062 C 80.976562 19.542969 78.339844 16.914062 75.09375 16.921875 C 71.847656 16.929688 69.21875 19.566406 69.222656 22.8125 M 23.839844 49.050781 C 23.867188 62.945312 35.152344 74.183594 49.046875 74.160156 C 62.941406 74.132812 74.1875 62.847656 74.160156 48.949219 C 74.136719 35.054688 62.847656 23.8125 48.949219 23.839844 C 35.054688 23.867188 23.8125 35.15625 23.839844 49.050781 M 32.667969 49.03125 C 32.648438 40.011719 39.945312 32.683594 48.96875 32.664062 C 57.988281 32.648438 65.316406 39.945312 65.332031 48.964844 C 65.351562 57.988281 58.054688 65.316406 49.03125 65.332031 C 40.011719 65.351562 32.683594 58.050781 32.667969 49.03125 "/>
</g>
</svg>
