<?xml version="1.0" encoding="UTF-8"?>
<svg version="1.1" xmlns="http://www.w3.org/2000/svg" width="1000" height="1000">
<path d="M0 0 C19.14 0 38.28 0 58 0 C58 33 58 66 58 100 C75.49 100 92.98 100 111 100 C111 67 111 34 111 0 C130.14 0 149.28 0 169 0 C169 33 169 66 169 100 C186.16 100 203.32 100 221 100 C221 67 221 34 221 0 C240.14 0 259.28 0 279 0 C279 33 279 66 279 100 C296.49 100 313.98 100 332 100 C332 67 332 34 332 0 C351.14 0 370.28 0 390 0 C390 33 390 66 390 100 C396.93 100.495 396.93 100.495 404 101 C432.07413158 105.99214959 458.23892586 123.28094697 474.8125 146.3125 C486.16371785 163.65117342 495 184.0155708 495 205 C528 205 561 205 595 205 C595 224.14 595 243.28 595 263 C562.33 263 529.66 263 496 263 C496 280.49 496 297.98 496 316 C528.67 316 561.34 316 595 316 C595 334.81 595 353.62 595 373 C562.33 373 529.66 373 496 373 C496 390.82 496 408.64 496 427 C528.67 427 561.34 427 595 427 C595 445.81 595 464.62 595 484 C562.33 484 529.66 484 496 484 C496 501.49 496 518.98 496 537 C528.67 537 561.34 537 595 537 C595 556.14 595 575.28 595 595 C562 595 529 595 495 595 C494.67 599.62 494.34 604.24 494 609 C493.43101347 612.01512059 492.85455568 614.77307461 492 617.6875 C491.78561279 618.4309668 491.57122559 619.17443359 491.3503418 619.94042969 C483.67151133 645.08643214 467.65111867 668.16194457 445 682 C444.28585937 682.48210938 443.57171875 682.96421875 442.8359375 683.4609375 C427.34641125 693.52114527 408.5220032 700 390 700 C390 733 390 766 390 800 C370.86 800 351.72 800 332 800 C332 767 332 734 332 700 C314.51 700 297.02 700 279 700 C279 733 279 766 279 800 C259.86 800 240.72 800 221 800 C221 767 221 734 221 700 C203.84 700 186.68 700 169 700 C169 733 169 766 169 800 C149.86 800 130.72 800 111 800 C111 767 111 734 111 700 C93.51 700 76.02 700 58 700 C58 733 58 766 58 800 C38.86 800 19.72 800 0 800 C0 767 0 734 0 700 C-4.29 699.67 -8.58 699.34 -13 699 C-33.15944919 695.51842382 -51.44026629 686.12939828 -67 673 C-67.56332031 672.55914063 -68.12664062 672.11828125 -68.70703125 671.6640625 C-85.38433665 658.55103609 -96.56929009 637.26209684 -102 617.125 C-102.1956958 616.40159424 -102.3913916 615.67818848 -102.59301758 614.93286133 C-104.2439376 608.18295473 -104.44918301 602.16062088 -105 595 C-138 595 -171 595 -205 595 C-205 575.86 -205 556.72 -205 537 C-172.33 537 -139.66 537 -106 537 C-106 519.51 -106 502.02 -106 484 C-138.67 484 -171.34 484 -205 484 C-205 465.19 -205 446.38 -205 427 C-172.33 427 -139.66 427 -106 427 C-106 409.51 -106 392.02 -106 374 C-138.67 373.67 -171.34 373.34 -205 373 C-205 354.19 -205 335.38 -205 316 C-172.33 316 -139.66 316 -106 316 C-106 298.51 -106 281.02 -106 263 C-138.67 263 -171.34 263 -205 263 C-205 243.86 -205 224.72 -205 205 C-172 205 -139 205 -105 205 C-105 202.36 -105 199.72 -105 197 C-104.7121582 194.64575195 -104.7121582 194.64575195 -104.30078125 192.73828125 C-104.14641602 192.01874268 -103.99205078 191.2992041 -103.83300781 190.55786133 C-103.66124023 189.81689209 -103.48947266 189.07592285 -103.3125 188.3125 C-103.13170898 187.52576904 -102.95091797 186.73903809 -102.76464844 185.9284668 C-96.10169164 158.06493496 -78.53627514 132.65354908 -54.43359375 116.98828125 C-37.87109533 107.39748296 -19.33995342 100 0 100 C0 67 0 34 0 0 Z M-30.625 171.375 C-31.40875 172.24125 -32.1925 173.1075 -33 174 C-33.55429687 174.57363281 -34.10859375 175.14726562 -34.6796875 175.73828125 C-46.35831234 188.24393317 -48.45714794 202.67368394 -48.38768005 219.19308472 C-48.39185881 220.8184884 -48.39733929 222.44388915 -48.40399987 224.06928456 C-48.41840214 228.51161256 -48.41422614 232.9537542 -48.40683305 237.39609218 C-48.40209072 242.19648253 -48.41462064 246.99683318 -48.42485046 251.79721069 C-48.44202295 261.19218901 -48.44288169 270.5871004 -48.43763756 279.98209034 C-48.43359174 287.62045364 -48.43504432 295.25879721 -48.44038582 302.89715958 C-48.44113424 303.98540812 -48.44188266 305.07365666 -48.44265376 306.19488243 C-48.44418528 308.40584905 -48.44572363 310.61681567 -48.44726873 312.82778229 C-48.46098817 333.54923871 -48.45555999 354.27065734 -48.44408352 374.99211289 C-48.43415176 393.93605784 -48.44709184 412.87990511 -48.47101771 431.823835 C-48.49541854 451.2909798 -48.50501415 470.75807913 -48.49836498 490.22523892 C-48.49487496 501.14836602 -48.4970906 512.07141802 -48.51461601 522.99453354 C-48.52935026 532.29307419 -48.52995739 541.59148683 -48.5125451 550.890025 C-48.50404286 555.63091595 -48.50186662 560.37157835 -48.51719666 565.11245728 C-48.53107678 569.45887457 -48.5262381 573.80486822 -48.50695742 578.15126123 C-48.50320728 579.717101 -48.50609075 581.28297499 -48.51656907 582.84878419 C-48.61553599 598.78029421 -44.87854443 614.24268508 -33.82421875 626.3125 C-19.74166252 639.3396184 -5.6614945 643.46443889 13.13529968 643.39440918 C14.76666505 643.39930376 16.39802695 643.40549619 18.029383 643.41286707 C22.49290607 643.42921809 26.95625195 643.42695853 31.41979444 643.4214921 C36.24137672 643.41881589 41.06291241 643.43336489 45.88447571 643.44558716 C55.32370533 643.46661923 64.7628735 643.47118325 74.20212378 643.46939927 C81.87767987 643.46809039 89.55321682 643.47190226 97.2287693 643.47932434 C99.44180626 643.4814236 101.65484321 643.4835212 103.86788017 643.48561716 C105.52026203 643.48718245 105.52026203 643.48718245 107.20602534 643.48877937 C128.03054402 643.50767319 148.85502746 643.50663433 169.67955116 643.49981004 C188.71275773 643.49423673 207.74582961 643.51505255 226.77900472 643.54817051 C246.33878996 643.58193961 265.89851075 643.59707172 285.45832568 643.59245348 C296.43297236 643.59021186 307.4074946 643.59540688 318.38211632 643.62034607 C327.7267553 643.64140092 337.07120162 643.64490981 346.41584864 643.62604648 C351.17930723 643.61691399 355.94240701 643.615669 360.70583725 643.63640213 C365.07529644 643.6552093 369.44410537 643.65050057 373.81354056 643.62785631 C375.38550453 643.62369496 376.95751932 643.62778664 378.5294294 643.64145225 C395.79955442 643.78124358 408.86189158 639.23694323 421.8125 627.4375 C422.8953125 626.2309375 422.8953125 626.2309375 424 625 C424.47824219 624.50242187 424.95648437 624.00484375 425.44921875 623.4921875 C436.45201681 611.57479917 438.45298423 597.49021206 438.38768005 581.88920593 C438.39185768 580.26054051 438.39733755 578.63187801 438.40399987 577.00322086 C438.41841705 572.5472322 438.41422142 568.0914291 438.40683305 563.63543046 C438.4020944 558.8220708 438.41461745 554.00875089 438.42485046 549.19540405 C438.44203056 539.77288311 438.44288004 530.35042888 438.43763756 520.92789634 C438.43359289 513.26710257 438.43504295 505.60632849 438.44038582 497.94553566 C438.44113424 496.85437627 438.44188266 495.76321687 438.44265376 494.63899205 C438.44418528 492.42214689 438.44572362 490.20530173 438.44726873 487.98845658 C438.46099111 467.207393 438.45555809 446.42636708 438.44408352 425.64530436 C438.4341531 406.64633046 438.44708899 387.64745398 438.47101771 368.6484951 C438.49541858 349.12714139 438.50501404 329.60583303 438.49836498 310.08446437 C438.49487475 299.13002331 438.49709186 288.17565715 438.51461601 277.22122765 C438.52935038 267.89521453 438.52995732 258.56932905 438.5125451 249.2433184 C438.50404264 244.48825778 438.50186711 239.73342503 438.51719666 234.97837639 C438.53107631 230.61896667 438.52623868 226.25997935 438.50695742 221.90059385 C438.50320711 220.33001358 438.50609124 218.75939921 438.51656907 217.18884941 C438.62259508 200.06852948 434.21193702 184.48948104 422 172 C421.34 172 420.68 172 420 172 C420 171.34 420 170.68 420 170 C403.87234373 157.47507354 387.4438013 155.84348846 367.61724854 155.86628723 C366.06767018 155.86441646 364.5180923 155.8621147 362.96851516 155.85942191 C358.73114006 155.8533304 354.49378478 155.85343437 350.25640631 155.85461628 C345.678218 155.85482096 341.10003595 155.84929516 336.52185059 155.84455872 C327.56022789 155.83626626 318.59861178 155.83350451 309.63698557 155.83294634 C302.34996687 155.83247053 295.06295033 155.83041256 287.77593231 155.82724571 C267.0990213 155.81844315 246.42211547 155.81382574 225.74520257 155.81457619 C224.63142439 155.81461614 223.51764622 155.8146561 222.37011719 155.81469727 C221.25497339 155.81473815 220.1398296 155.81477903 218.99089357 155.81482115 C200.92057031 155.81522755 182.85026789 155.8056583 164.77995065 155.7915589 C146.20894119 155.77718358 127.63794188 155.77028934 109.06692672 155.77115268 C98.64735391 155.77148423 88.22780295 155.76875513 77.80823517 155.75797462 C68.93682902 155.74885444 60.06545463 155.74670685 51.19404581 155.75348405 C46.67182464 155.75674152 42.14966436 155.75683393 37.62744904 155.7481308 C33.47966375 155.74023067 29.33198729 155.74173282 25.18420455 155.75041493 C23.69166618 155.75194221 22.19911954 155.7501632 20.70659092 155.74455485 C1.48874731 155.67718165 -15.89329126 158.04631114 -30.625 171.375 Z " fill="#0070E4" transform="translate(305,100)"/>
<path d="M0 0 C2.00593347 -0.00407513 4.01186469 -0.00942225 6.01779175 -0.01593018 C11.41862976 -0.02949764 16.81929405 -0.02434918 22.22013474 -0.01479292 C27.90074851 -0.00714111 33.58134846 -0.01425714 39.26196289 -0.01895142 C48.79739015 -0.024393 58.33274745 -0.01725944 67.86816406 -0.00292969 C78.85634881 0.01339369 89.84436649 0.00810405 100.83254719 -0.0084089 C110.30566737 -0.02206945 119.77873757 -0.02392118 129.25186443 -0.0160929 C134.89271974 -0.01144142 140.5334968 -0.01072142 146.17434692 -0.02070236 C151.48018246 -0.02943656 156.78580482 -0.0232335 162.09161758 -0.00601959 C164.02642591 -0.00208895 165.96125252 -0.0031292 167.89605331 -0.00980759 C195.6526287 -0.09670393 218.60810763 6.51123112 239.27734375 25.70068359 C254.20220131 41.54910907 262.69169229 62.40216547 262.66778564 84.10144043 C262.67224233 85.38085565 262.67224233 85.38085565 262.67678905 86.68611765 C262.68542954 89.53147784 262.68698036 92.37679572 262.68847656 95.22216797 C262.69310812 97.26780282 262.69813324 99.31343682 262.70352173 101.35906982 C262.71661738 106.90907192 262.72308545 112.45906194 262.72753239 118.00907707 C262.73046842 121.48154232 262.73457428 124.9540043 262.73903656 128.4264679 C262.75270563 139.30542024 262.7623745 150.18436507 262.76623845 161.06332541 C262.77071426 173.59408506 262.78824252 186.12473537 262.81723905 198.65546179 C262.83890759 208.35851941 262.84894553 218.06154639 262.85027957 227.76462793 C262.85132413 233.55147671 262.8571571 239.33822262 262.87509918 245.12504578 C262.89166888 250.57519111 262.89369243 256.02515724 262.88496017 261.47531891 C262.88419447 263.46537509 262.88847016 265.45544126 262.89841843 267.44547272 C262.97399287 283.51795494 261.64919211 297.67781305 254.52734375 312.38818359 C253.86412109 313.77457031 253.86412109 313.77457031 253.1875 315.18896484 C244.17336144 332.84269326 229.93374166 344.6612702 212.52734375 353.38818359 C211.65335938 353.83162109 210.779375 354.27505859 209.87890625 354.73193359 C195.92828859 361.0168535 179.93379334 360.82821034 164.95703125 360.77636719 C162.95257279 360.78044323 160.94811659 360.78579085 158.94366455 360.79229736 C153.55108266 360.80585401 148.15867493 360.80072095 142.76609039 360.79116011 C137.09128897 360.78350257 131.4165013 360.79062589 125.74169922 360.7953186 C116.21644445 360.80075855 106.69125973 360.79363097 97.16601562 360.77929688 C86.19316684 360.76297382 75.22048535 360.76826357 64.24764061 360.78477609 C54.78382637 360.79844135 45.32006215 360.80028609 35.85624123 360.79246008 C30.22263476 360.78781117 24.58910663 360.78708139 18.95550537 360.79706955 C13.65621965 360.80581069 8.35714718 360.79958835 3.05788422 360.78238678 C1.12672019 360.77845978 -0.80446215 360.77948994 -2.73561859 360.78617477 C-17.35549516 360.83207108 -32.35893321 360.39976002 -45.84765625 354.13818359 C-46.49774658 353.83807373 -47.14783691 353.53796387 -47.81762695 353.22875977 C-55.58190199 349.54822332 -62.98536154 345.04584204 -69.47265625 339.38818359 C-69.47265625 338.72818359 -69.47265625 338.06818359 -69.47265625 337.38818359 C-70.04242188 337.16130859 -70.6121875 336.93443359 -71.19921875 336.70068359 C-84.65478415 328.93252213 -92.07262534 308.2859723 -95.89453125 294.15380859 C-97.2513184 287.66323221 -97.62055686 281.31836395 -97.61309814 274.71325684 C-97.61606927 273.8764987 -97.61904039 273.03974057 -97.62210155 272.17762613 C-97.63072538 269.3929839 -97.63229142 266.60838497 -97.63378906 263.82373047 C-97.6384218 261.81897898 -97.64344707 259.81422836 -97.64883423 257.80947876 C-97.66191829 252.37516753 -97.66839564 246.94086863 -97.67284489 241.50654411 C-97.6757827 238.10525728 -97.67988888 234.70397376 -97.68434906 231.3026886 C-97.69801486 220.64318531 -97.70768542 209.98368966 -97.71155095 199.32417822 C-97.71602645 187.05265993 -97.73355465 174.78125331 -97.76255155 162.50976896 C-97.78422972 153.00285223 -97.79425854 143.49596676 -97.79559207 133.98902559 C-97.79663591 128.32120747 -97.8024534 122.65349444 -97.82041168 116.98570251 C-97.83699825 111.64716521 -97.83899692 106.30881083 -97.83027267 100.97025681 C-97.82950787 99.0225462 -97.83377047 97.07482533 -97.84373093 95.12714005 C-97.97821185 67.16649088 -91.11090844 43.52702057 -71.1328125 22.98193359 C-50.98703708 3.91364697 -26.57244868 -0.09172054 0 0 Z " fill="#0070E4" transform="translate(417.47265625,319.61181640625)"/>
</svg>
